<svg version="1.1" xmlns="http://www.w3.org/2000/svg" viewBox="0 0 909.0714285714283 793.4285714285713" width="909.0714285714283" height="793.4285714285713">
  <!-- svg-source:excalidraw -->
  
  <defs>
    <style class="style-fonts">
      @font-face {
        font-family: "Virgil";
        src: url("https://excalidraw.com/Virgil.woff2");
      }
      @font-face {
        font-family: "Cascadia";
        src: url("https://excalidraw.com/Cascadia.woff2");
      }
    </style>
  </defs>
  <rect x="0" y="0" width="909.0714285714283" height="793.4285714285713" fill="#ffffff"></rect><g stroke-linecap="round" transform="translate(171.14285714285722 604.7142857142857) rotate(0 164.92857142857144 89.35714285714283)"><path d="M32 0 M32 0 C134.85 -1.71, 236.74 -1.73, 297.86 0 M32 0 C132.7 0.58, 231.86 1.45, 297.86 0 M297.86 0 C320.1 -1.96, 331.35 10.48, 329.86 32 M297.86 0 C318.61 1, 330.76 12.81, 329.86 32 M329.86 32 C329.41 72.75, 332.17 112.55, 329.86 146.71 M329.86 32 C330.62 60.99, 330.49 90.44, 329.86 146.71 M329.86 146.71 C329.45 166.48, 319.64 176.88, 297.86 178.71 M329.86 146.71 C330.47 168.66, 318.03 178.32, 297.86 178.71 M297.86 178.71 C226.84 179, 154.8 178.78, 32 178.71 M297.86 178.71 C229.78 177.07, 159.73 176.39, 32 178.71 M32 178.71 C10.1 178.68, 0.23 166.08, 0 146.71 M32 178.71 C12.75 179.41, 0.17 167.72, 0 146.71 M0 146.71 C-1.36 122.83, -0.21 98.61, 0 32 M0 146.71 C0.27 107.54, 1.11 69.62, 0 32 M0 32 C1.35 8.73, 10.33 1.7, 32 0 M0 32 C-1.6 10.28, 8.86 -1.77, 32 0" stroke="#000000" stroke-width="1" fill="none"></path></g><g stroke-linecap="round" transform="translate(532.0714285714286 607.9285714285713) rotate(0 183.4999999999999 87.21428571428572)"><path d="M32 0 M32 0 C130.56 1.46, 230.84 0.62, 335 0 M32 0 C106.46 1.6, 180.82 2.2, 335 0 M335 0 C357.23 -1.1, 366.19 10.1, 367 32 M335 0 C356.29 0.26, 364.74 12.75, 367 32 M367 32 C365.13 69.24, 367.84 104, 367 142.43 M367 32 C367.51 61.24, 367.36 91.09, 367 142.43 M367 142.43 C366.04 165.09, 356.94 175.78, 335 174.43 M367 142.43 C364.77 163.37, 358.29 172.83, 335 174.43 M335 174.43 C249.69 172.33, 163.36 172.26, 32 174.43 M335 174.43 C253.18 176.05, 172.63 176.39, 32 174.43 M32 174.43 C10.84 174.07, -1.92 164.65, 0 142.43 M32 174.43 C12.73 174.11, 1.78 163.53, 0 142.43 M0 142.43 C-0.94 115.99, -1.89 89.71, 0 32 M0 142.43 C1.15 106.7, 1.11 71.02, 0 32 M0 32 C1.29 10.76, 12.12 -1.27, 32 0 M0 32 C-0.79 8.4, 12.46 -1.81, 32 0" stroke="#000000" stroke-width="1" fill="none"></path></g><g stroke-linecap="round" transform="translate(332.71428571428567 667) rotate(0 80 51)"><path d="M25.5 0 M25.5 0 C67.27 -1.21, 105.31 -1.39, 134.5 0 M25.5 0 C49.86 -0.02, 73.81 -0.32, 134.5 0 M134.5 0 C152.87 -1.4, 160.3 9.18, 160 25.5 M134.5 0 C152.92 0.2, 159.59 6.29, 160 25.5 M160 25.5 C162 42.86, 159.4 61.77, 160 76.5 M160 25.5 C159.29 40.25, 160.18 52.4, 160 76.5 M160 76.5 C161.6 94.08, 152 102.49, 134.5 102 M160 76.5 C161.23 94.99, 151.61 103.67, 134.5 102 M134.5 102 C110.27 99.35, 82.66 100.19, 25.5 102 M134.5 102 C108.03 103.17, 81.82 103.24, 25.5 102 M25.5 102 C7.23 103.15, 1.87 94.16, 0 76.5 M25.5 102 C6.36 100.88, 1.27 94.27, 0 76.5 M0 76.5 C-1.02 61.36, 1.14 51.76, 0 25.5 M0 76.5 C-0.21 65.3, 0.52 52.13, 0 25.5 M0 25.5 C0.53 7.38, 6.63 -1.42, 25.5 0 M0 25.5 C-1.64 7.45, 8.18 -0.82, 25.5 0" stroke="#000000" stroke-width="1" fill="none"></path></g><g stroke-linecap="round" transform="translate(729.5714285714283 666.8571428571428) rotate(0 80 51)"><path d="M25.5 0 M25.5 0 C64.16 1.93, 105.2 0.11, 134.5 0 M25.5 0 C54.87 0.46, 83.24 0.22, 134.5 0 M134.5 0 C152.44 -1.27, 161.15 10.37, 160 25.5 M134.5 0 C152.26 -2.14, 158.88 9.77, 160 25.5 M160 25.5 C159.12 41.35, 157.96 60.52, 160 76.5 M160 25.5 C159.81 45.71, 160.53 66.5, 160 76.5 M160 76.5 C159.48 94.03, 150.38 100.13, 134.5 102 M160 76.5 C158.36 91.86, 150.45 101.68, 134.5 102 M134.5 102 C103.7 103.58, 76.72 103.23, 25.5 102 M134.5 102 C109.22 102.03, 82.6 102.03, 25.5 102 M25.5 102 C8.92 103.43, 1.95 94.63, 0 76.5 M25.5 102 C10.51 99.87, 2.08 91.35, 0 76.5 M0 76.5 C0.95 61.44, 0.21 47.75, 0 25.5 M0 76.5 C-0.67 64.97, -0.54 52.69, 0 25.5 M0 25.5 C0.72 9.49, 10.14 -0.66, 25.5 0 M0 25.5 C1.5 9.36, 8.09 -2.11, 25.5 0" stroke="#000000" stroke-width="1" fill="none"></path></g><g transform="translate(187.14285714285722 616.7142857142857) rotate(0 44.858333587646484 12.5)"><text x="0" y="0" font-family="Virgil, Segoe UI Emoji" font-size="20px" fill="#000000" text-anchor="start" style="white-space: pre;" direction="ltr" dominant-baseline="text-before-edge">x86 CPU</text></g><g transform="translate(560.5714285714286 631.4285714285713) rotate(0 46.19166564941406 12.5)"><text x="0" y="0" font-family="Virgil, Segoe UI Emoji" font-size="20px" fill="#000000" text-anchor="start" style="white-space: pre;" direction="ltr" dominant-baseline="text-before-edge">ARM CPU</text></g><g stroke-linecap="round"><g transform="translate(546.8816579308422 438.09866552530383) rotate(0 -104.52682175196168 79.89330927688896)"><path d="M0.62 -0.46 C-34.06 26.12, -173.89 133.27, -208.9 160.16 M-0.51 -1.75 C-35.25 24.95, -174.7 134.78, -209.67 161.54" stroke="#000000" stroke-width="1" fill="none"></path></g><g transform="translate(546.8816579308422 438.09866552530383) rotate(0 -104.52682175196168 79.89330927688896)"><path d="M-194.49 136.7 C-197.79 141.72, -200.25 148.97, -208.04 160.88 M-194.64 137.11 C-199.98 145.06, -205.13 155.34, -209.24 161.72" stroke="#000000" stroke-width="1" fill="none"></path></g><g transform="translate(546.8816579308422 438.09866552530383) rotate(0 -104.52682175196168 79.89330927688896)"><path d="M-181.89 152.9 C-188.2 154.24, -193.57 157.74, -208.04 160.88 M-182.04 153.3 C-192.05 155.32, -201.79 159.69, -209.24 161.72" stroke="#000000" stroke-width="1" fill="none"></path></g></g><mask></mask><g stroke-linecap="round"><g transform="translate(551.4285714285714 430) rotate(0 101.25629670570368 88.14356327021889)"><path d="M0.5 0.39 C34.19 29.71, 169.27 146.26, 203.22 175.8 M-0.7 -0.45 C32.77 28.99, 168.26 147.39, 202.38 176.74" stroke="#000000" stroke-width="1" fill="none"></path></g><g transform="translate(551.4285714285714 430) rotate(0 101.25629670570368 88.14356327021889)"><path d="M175.02 166.37 C183.26 171.99, 197.07 175.33, 202.94 176.58 M175.33 165.93 C184.33 170.72, 193.68 174.11, 202.02 175.96" stroke="#000000" stroke-width="1" fill="none"></path></g><g transform="translate(551.4285714285714 430) rotate(0 101.25629670570368 88.14356327021889)"><path d="M188.47 150.87 C191.51 162.52, 200.14 171.83, 202.94 176.58 M188.78 150.43 C193.2 160.29, 198.08 168.83, 202.02 175.96" stroke="#000000" stroke-width="1" fill="none"></path></g></g><mask></mask><g stroke-linecap="round" transform="translate(420.0000000000001 278.57142857142867) rotate(0 128.57142857142856 80.7142857142857)"><path d="M161.25 20.25 M161.25 20.25 C182.04 33.44, 201.43 47.55, 224.89 60.75 M161.25 20.25 C185.14 34.6, 208.11 49.01, 224.89 60.75 M224.89 60.75 C255.7 79.91, 256.56 82.18, 224.89 101.25 M224.89 60.75 C258.23 81.75, 258.51 81.89, 224.89 101.25 M224.89 101.25 C211.39 111.49, 199.42 117.33, 161.25 141.18 M224.89 101.25 C205.5 114.55, 186.05 126.12, 161.25 141.18 M161.25 141.18 C130.66 159.45, 127.79 161.39, 96.75 141.18 M161.25 141.18 C127.22 160.75, 131.29 160.58, 96.75 141.18 M96.75 141.18 C75.36 125.43, 52.03 111.86, 32.25 101.25 M96.75 141.18 C76.24 127.92, 53.88 114.49, 32.25 101.25 M32.25 101.25 C-0.66 79.75, -0.91 82.08, 32.25 60.75 M32.25 101.25 C1.16 82.94, 1.41 80.36, 32.25 60.75 M32.25 60.75 C53.09 46.04, 77.38 33.35, 96.75 20.25 M32.25 60.75 C48.95 50.16, 65.81 39.06, 96.75 20.25 M96.75 20.25 C129.07 1.99, 129.71 -1.77, 161.25 20.25 M96.75 20.25 C128.34 -0.56, 127.42 1.34, 161.25 20.25" stroke="#000000" stroke-width="1" fill="none"></path></g><g transform="translate(490.0000000000001 337.14285714285717) rotate(0 70.625 25)"><text x="0" y="0" font-family="Virgil, Segoe UI Emoji" font-size="20px" fill="#000000" text-anchor="start" style="white-space: pre;" direction="ltr" dominant-baseline="text-before-edge">Noe Mutating </text><text x="0" y="25" font-family="Virgil, Segoe UI Emoji" font-size="20px" fill="#000000" text-anchor="start" style="white-space: pre;" direction="ltr" dominant-baseline="text-before-edge">webhook</text></g><g stroke-linecap="round"><g transform="translate(214.28571428571433 364.28571428571433) rotate(0 103.85483119619141 -2.1687759454761135)"><path d="M0.15 -0.11 C34.94 -0.73, 174.11 -3.55, 208.94 -4.23 M-1.23 -1.21 C33.42 -1.58, 173.21 -2.4, 208.19 -2.66" stroke="#000000" stroke-width="1" fill="none"></path></g><g transform="translate(214.28571428571433 364.28571428571433) rotate(0 103.85483119619141 -2.1687759454761135)"><path d="M179.89 8.41 C189.03 5.43, 197.98 1.39, 209.42 -2.51 M180.6 7.54 C190.41 4.29, 201.77 -0.49, 207.38 -3.09" stroke="#000000" stroke-width="1" fill="none"></path></g><g transform="translate(214.28571428571433 364.28571428571433) rotate(0 103.85483119619141 -2.1687759454761135)"><path d="M179.75 -12.11 C188.86 -8.65, 197.84 -6.26, 209.42 -2.51 M180.46 -12.98 C190.44 -8.5, 201.85 -5.55, 207.38 -3.09" stroke="#000000" stroke-width="1" fill="none"></path></g></g><mask></mask><g stroke-linecap="round" transform="translate(10 310.00000000000006) rotate(0 104.28571428571428 55.71428571428572)"><path d="M27.86 0 M27.86 0 C63.07 -0.42, 98.4 -1.28, 180.71 0 M27.86 0 C65.12 -0.5, 102.92 -0.58, 180.71 0 M180.71 0 C198.73 1.25, 207.04 9.76, 208.57 27.86 M180.71 0 C201.05 -0.56, 208.95 11.37, 208.57 27.86 M208.57 27.86 C208.95 42.81, 208.08 57.18, 208.57 83.57 M208.57 27.86 C209.19 43, 208.92 55.81, 208.57 83.57 M208.57 83.57 C207.15 103.47, 199.16 111.18, 180.71 111.43 M208.57 83.57 C208.1 102.51, 197.4 110.02, 180.71 111.43 M180.71 111.43 C139.81 113.26, 102.09 109.4, 27.86 111.43 M180.71 111.43 C131.31 110.49, 81.82 111.57, 27.86 111.43 M27.86 111.43 C10.94 110.35, -0.72 101.18, 0 83.57 M27.86 111.43 C7.77 111.9, 2.25 100.5, 0 83.57 M0 83.57 C-1.93 70.36, 0.21 56.7, 0 27.86 M0 83.57 C0.86 69.04, -0.98 53.14, 0 27.86 M0 27.86 C-0.02 10.5, 7.61 -1.54, 27.86 0 M0 27.86 C0.34 8.51, 11.52 -1.56, 27.86 0" stroke="#000000" stroke-width="1" fill="none"></path></g><g transform="translate(61.428571428571445 352.8571428571429) rotate(0 53.18333435058594 12.5)"><text x="0" y="0" font-family="Virgil, Segoe UI Emoji" font-size="20px" fill="#000000" text-anchor="start" style="white-space: pre;" direction="ltr" dominant-baseline="text-before-edge">Deployment</text></g><g transform="translate(377.1428571428572 705.7142857142857) rotate(0 39.266666412353516 12.5)"><text x="0" y="0" font-family="Virgil, Segoe UI Emoji" font-size="20px" fill="#000000" text-anchor="start" style="white-space: pre;" direction="ltr" dominant-baseline="text-before-edge">App Pod</text></g><g transform="translate(777.3047621590748 709.2142857142857) rotate(0 39.266666412353516 12.5)"><text x="0" y="0" font-family="Virgil, Segoe UI Emoji" font-size="20px" fill="#000000" text-anchor="start" style="white-space: pre;" direction="ltr" dominant-baseline="text-before-edge">App Pod</text></g><g transform="translate(650.0000000000001 498.57142857142867) rotate(0 101.56666564941406 12.5)"><text x="0" y="0" font-family="Virgil, Segoe UI Emoji" font-size="20px" fill="#000000" text-anchor="start" style="white-space: pre;" direction="ltr" dominant-baseline="text-before-edge">If ARM is supported</text></g><g transform="translate(339.9999999999999 512.8571428571429) rotate(0 100.23332977294922 12.5)"><text x="0" y="0" font-family="Virgil, Segoe UI Emoji" font-size="20px" fill="#000000" text-anchor="start" style="white-space: pre;" direction="ltr" dominant-baseline="text-before-edge">If x86 is supported</text></g><g stroke-linecap="round" transform="translate(726.5357142857141 10) rotate(0 76 33)"><path d="M16.5 0 M16.5 0 C49.15 0.86, 85.15 -2.84, 135.5 0 M16.5 0 C45.74 -0.47, 76.33 0.15, 135.5 0 M135.5 0 C148.06 1.93, 153.12 4.5, 152 16.5 M135.5 0 C147.78 -1.73, 151.08 3.57, 152 16.5 M152 16.5 C150.65 24.57, 153.58 28.18, 152 49.5 M152 16.5 C152.6 23.78, 151.36 31.42, 152 49.5 M152 49.5 C152.08 60.11, 145.51 67.68, 135.5 66 M152 49.5 C152.32 59.07, 144.94 64.04, 135.5 66 M135.5 66 C107.34 65.21, 75.86 62.98, 16.5 66 M135.5 66 C102.88 65.96, 70.55 65.68, 16.5 66 M16.5 66 C5.44 66.71, -1.01 59.9, 0 49.5 M16.5 66 C7.3 66.7, -1.64 59.7, 0 49.5 M0 49.5 C1.53 43.85, 1.5 33.76, 0 16.5 M0 49.5 C-0.61 37.82, -0.14 27.58, 0 16.5 M0 16.5 C-0.91 3.87, 7.02 -1.81, 16.5 0 M0 16.5 C-0.43 3.54, 7.27 1.26, 16.5 0" stroke="#000000" stroke-width="1" fill="none"></path></g><g transform="translate(748.5357142857141 28) rotate(0 39.525001525878906 12.5)"><text x="0" y="0" font-family="Virgil, Segoe UI Emoji" font-size="20px" fill="#000000" text-anchor="start" style="white-space: pre;" direction="ltr" dominant-baseline="text-before-edge">Registry</text></g><g stroke-linecap="round"><g transform="translate(513.3267842766144 297.21003894697674) rotate(0 104.78121671759436 -125.27551462988006)"><path d="M0.65 0.63 C35.48 -41.08, 175.19 -209.09, 210.03 -251.18 M-0.47 -0.08 C34.09 -41.53, 174.11 -207.95, 208.97 -249.8" stroke="#000000" stroke-width="1" fill="none"></path></g><g transform="translate(513.3267842766144 297.21003894697674) rotate(0 104.78121671759436 -125.27551462988006)"><path d="M199.79 -221.95 C202.44 -233.42, 205.19 -245.36, 207.5 -248.38 M197.76 -221.38 C202.32 -229.19, 205.28 -237.93, 208.18 -250.12" stroke="#000000" stroke-width="1" fill="none"></path></g><g transform="translate(513.3267842766144 297.21003894697674) rotate(0 104.78121671759436 -125.27551462988006)"><path d="M184.06 -235.13 C192.7 -241.58, 201.54 -248.41, 207.5 -248.38 M182.03 -234.56 C190.94 -238.59, 198.3 -243.65, 208.18 -250.12" stroke="#000000" stroke-width="1" fill="none"></path></g></g><mask></mask><g mask="url(#mask-Ew0jQBDX3KZ8o0wiGpsIM)" stroke-linecap="round"><g transform="translate(740.875061659079 78) rotate(0 -90.96025745587872 102.53634920826887)"><path d="M-0.45 -0.81 C-30.78 33.25, -151.91 170.4, -182.26 204.83 M1.52 1.38 C-28.99 35.52, -153.17 171.58, -183.44 205.88" stroke="#000000" stroke-width="1" fill="none"></path></g><g transform="translate(740.875061659079 78) rotate(0 -90.96025745587872 102.53634920826887)"><path d="M-173.56 177.33 C-176.78 184.5, -178.25 192.32, -181.97 204.16 M-171.55 178.26 C-176.5 185.69, -179.66 194.55, -183.37 205.06" stroke="#000000" stroke-width="1" fill="none"></path></g><g transform="translate(740.875061659079 78) rotate(0 -90.96025745587872 102.53634920826887)"><path d="M-158.3 191.05 C-165.81 194.35, -171.53 198.36, -181.97 204.16 M-156.29 191.99 C-165.64 195.34, -173.29 200.17, -183.37 205.06" stroke="#000000" stroke-width="1" fill="none"></path></g></g><mask id="mask-Ew0jQBDX3KZ8o0wiGpsIM"><rect x="0" y="0" fill="#fff" width="1022.6970390082353" height="383.7701805849328"></rect><rect x="549.372405809208" y="155.88509029246643" fill="#000" width="201.18333435058594" height="50" opacity="1"></rect></mask><g transform="translate(549.372405809208 155.88509029246643) rotate(0 100.54239839399247 24.651258915802444)"><text x="100.59166717529297" y="0" font-family="Virgil, Segoe UI Emoji" font-size="20px" fill="#000000" text-anchor="middle" style="white-space: pre;" direction="ltr" dominant-baseline="text-before-edge">Get image platform </text><text x="100.59166717529297" y="25" font-family="Virgil, Segoe UI Emoji" font-size="20px" fill="#000000" text-anchor="middle" style="white-space: pre;" direction="ltr" dominant-baseline="text-before-edge">support annotations</text></g><g transform="translate(537.5357142857141 83) rotate(0 67.2249984741211 25)"><text x="0" y="0" font-family="Virgil, Segoe UI Emoji" font-size="20px" fill="#000000" text-anchor="start" style="white-space: pre;" direction="ltr" dominant-baseline="text-before-edge">Ask for image</text><text x="0" y="25" font-family="Virgil, Segoe UI Emoji" font-size="20px" fill="#000000" text-anchor="start" style="white-space: pre;" direction="ltr" dominant-baseline="text-before-edge"> metadata</text></g><g stroke-linecap="round" transform="translate(317.347460636248 314.007715607469) rotate(359.25594079711135 18 21)"><path d="M11.3 2.34 C14.67 0.39, 19.31 -0.78, 23.05 0.43 C26.79 1.63, 31.5 5.69, 33.74 9.56 C35.99 13.42, 37.27 19.06, 36.52 23.63 C35.77 28.2, 32.19 34.04, 29.23 36.97 C26.28 39.89, 22.56 41.22, 18.76 41.18 C14.97 41.14, 9.36 39.27, 6.45 36.71 C3.54 34.16, 2.02 30.21, 1.32 25.84 C0.62 21.47, 0.05 14.8, 2.26 10.48 C4.47 6.17, 11.63 1.54, 14.6 -0.05 C17.56 -1.63, 19.83 0.55, 20.05 0.99 M11.85 0.94 C15.48 -0.79, 20.84 0.84, 24.35 2.34 C27.87 3.84, 30.9 6.18, 32.96 9.94 C35.01 13.71, 37.35 20.31, 36.67 24.93 C35.99 29.55, 31.63 34.76, 28.86 37.64 C26.09 40.53, 23.8 42.25, 20.04 42.23 C16.28 42.21, 9.47 40.42, 6.31 37.52 C3.14 34.61, 1.76 29.22, 1.05 24.82 C0.34 20.42, 0.2 14.76, 2.04 11.12 C3.89 7.49, 10.46 4.4, 12.12 3 C13.79 1.61, 12.08 2.74, 12.06 2.77" stroke="#e03131" stroke-width="1" fill="none"></path></g><g transform="translate(332.95287182875063 325.1584732025515) rotate(359.25594079711135 2.1666667461395264 10)"><text x="2.1666667461395264" y="0" font-family="Virgil, Segoe UI Emoji" font-size="16px" fill="#e03131" text-anchor="middle" style="white-space: pre;" direction="ltr" dominant-baseline="text-before-edge">1</text></g><g stroke-linecap="round" transform="translate(504.5357142857141 90) rotate(359.25594079711135 18 21)"><path d="M15.33 -0.64 C18.98 -1.36, 24.52 1.07, 27.78 3.6 C31.05 6.13, 33.67 10.47, 34.93 14.55 C36.19 18.62, 36.74 23.85, 35.36 28.03 C33.99 32.21, 30.21 37.38, 26.7 39.62 C23.19 41.86, 18.21 42.5, 14.3 41.46 C10.39 40.42, 5.55 36.78, 3.25 33.38 C0.95 29.98, 0.31 25.44, 0.49 21.06 C0.66 16.69, 1.09 10.7, 4.28 7.14 C7.47 3.58, 16.6 0.71, 19.63 -0.31 C22.65 -1.33, 22.5 0.64, 22.42 1.03 M11.35 1.1 C14.92 -1.09, 20.08 -1.78, 23.83 -0.06 C27.59 1.66, 32 7.38, 33.88 11.42 C35.76 15.46, 35.78 19.69, 35.1 24.21 C34.42 28.72, 32.56 35.32, 29.81 38.5 C27.07 41.67, 22.32 43.57, 18.63 43.27 C14.93 42.97, 10.58 39.67, 7.65 36.69 C4.72 33.7, 2.14 29.65, 1.05 25.37 C-0.04 21.09, -0.53 15.1, 1.12 11 C2.77 6.9, 8.92 2.37, 10.96 0.78 C13 -0.81, 12.9 1.09, 13.34 1.47" stroke="#e03131" stroke-width="1" fill="none"></path></g><g transform="translate(516.607792415091 101.1507575950825) rotate(359.25594079711135 5.699999809265137 10)"><text x="5.699999809265137" y="0" font-family="Virgil, Segoe UI Emoji" font-size="16px" fill="#e03131" text-anchor="middle" style="white-space: pre;" direction="ltr" dominant-baseline="text-before-edge">2</text></g><g stroke-linecap="round" transform="translate(768.5357142857141 175) rotate(359.25594079711135 18 21)"><path d="M16.15 0.15 C19.78 -0.53, 25.59 1.39, 28.79 3.92 C31.99 6.45, 34.58 10.83, 35.35 15.3 C36.13 19.77, 35.03 26.63, 33.45 30.74 C31.87 34.85, 29.27 38.1, 25.87 39.98 C22.47 41.86, 16.89 43.18, 13.03 42.01 C9.17 40.84, 4.87 36.77, 2.72 32.97 C0.57 29.17, -0.32 23.85, 0.14 19.21 C0.59 14.57, 2.15 8.14, 5.43 5.14 C8.72 2.15, 16.68 1.81, 19.82 1.25 C22.97 0.68, 24.2 1.73, 24.3 1.77 M19.68 0.31 C23.43 0.72, 29.6 3.64, 32.52 7.07 C35.45 10.49, 37.32 16.32, 37.23 20.84 C37.15 25.37, 34.41 31.01, 32.01 34.23 C29.61 37.46, 26.44 39.37, 22.84 40.17 C19.24 40.96, 14.04 40.56, 10.4 39 C6.75 37.45, 2.63 34.64, 0.98 30.85 C-0.67 27.07, -0.63 20.99, 0.51 16.29 C1.65 11.6, 4.54 5.55, 7.83 2.69 C11.11 -0.18, 18.33 -0.68, 20.21 -0.9 C22.08 -1.12, 19.03 0.91, 19.08 1.37" stroke="#e03131" stroke-width="1" fill="none"></path></g><g transform="translate(780.857792415091 186.1507575950825) rotate(359.25594079711135 5.449999809265137 10)"><text x="5.449999809265137" y="0" font-family="Virgil, Segoe UI Emoji" font-size="16px" fill="#e03131" text-anchor="middle" style="white-space: pre;" direction="ltr" dominant-baseline="text-before-edge">3</text></g><g stroke-linecap="round" transform="translate(534.5357142857141 427) rotate(359.25594079711135 18 21)"><path d="M17.36 0.64 C21.08 0.23, 25.3 1.63, 28.46 4.15 C31.62 6.66, 35.35 11.37, 36.33 15.74 C37.32 20.12, 36.18 26.31, 34.4 30.38 C32.62 34.45, 29.36 38.52, 25.66 40.15 C21.96 41.78, 15.81 41.45, 12.2 40.15 C8.59 38.84, 6.02 35.95, 3.99 32.34 C1.95 28.73, -0.14 22.88, -0.02 18.49 C0.11 14.1, 1.4 9.15, 4.74 6.01 C8.07 2.87, 17.19 0.46, 19.97 -0.37 C22.75 -1.21, 21.36 0.49, 21.39 0.97 M26.14 2.47 C29.18 4.12, 31.54 8.41, 32.96 12.28 C34.38 16.14, 35.15 21.38, 34.65 25.64 C34.15 29.89, 32.77 35.13, 29.98 37.81 C27.19 40.49, 22.14 41.98, 17.91 41.72 C13.69 41.46, 7.78 39.49, 4.63 36.24 C1.49 32.99, -0.83 26.61, -0.94 22.21 C-1.06 17.81, 1.65 13.2, 3.94 9.83 C6.23 6.46, 9.26 3.14, 12.79 1.99 C16.31 0.83, 22.95 2.92, 25.1 2.87 C27.24 2.83, 25.86 1.46, 25.65 1.72" stroke="#e03131" stroke-width="1" fill="none"></path></g><g transform="translate(547.1911254305329 438.1507575950825) rotate(359.25594079711135 5.116666793823242 10)"><text x="5.116666793823242" y="0" font-family="Virgil, Segoe UI Emoji" font-size="16px" fill="#e03131" text-anchor="middle" style="white-space: pre;" direction="ltr" dominant-baseline="text-before-edge">4</text></g></svg>